<?xml version="1.0" standalone="no"?>
<!DOCTYPE svg PUBLIC "-//W3C//DTD SVG 20010904//EN"
 "http://www.w3.org/TR/2001/REC-SVG-20010904/DTD/svg10.dtd">
<svg version="1.0" xmlns="http://www.w3.org/2000/svg"
 width="75.000000pt" height="75.000000pt" viewBox="0 0 75.000000 75.000000"
 preserveAspectRatio="xMidYMid meet">
<metadata>
Created by potrace 1.11, written by Peter Selinger 2001-2013
</metadata>
<g transform="translate(0.000000,75.000000) scale(0.100000,-0.100000)"
fill="#000000" stroke="none">
<path d="M0 737 c0 -15 66 -77 81 -77 6 0 -7 20 -28 45 -38 46 -53 55 -53 32z"/>
<path d="M726 708 c-11 -18 -24 -36 -30 -40 -7 -5 -7 -8 -1 -8 22 1 56 40 53
61 -3 18 -5 17 -22 -13z"/>
<path d="M734 655 c-4 -8 -10 -12 -15 -9 -5 3 -9 -7 -8 -23 0 -15 3 -22 6 -15
2 6 11 12 19 12 8 0 14 10 14 25 0 28 -8 33 -16 10z"/>
<path d="M100 643 c0 -6 7 -14 16 -17 9 -4 14 -13 10 -21 -3 -8 -1 -15 4 -15
17 0 11 26 -10 45 -11 10 -20 13 -20 8z"/>
<path d="M59 607 c5 -5 7 -17 4 -26 -5 -12 -1 -11 14 4 23 22 22 28 -8 30 -12
1 -16 -2 -10 -8z"/>
<path d="M140 566 c0 -2 7 -9 15 -16 9 -7 15 -8 15 -2 0 5 -7 12 -15 16 -8 3
-15 4 -15 2z"/>
<path d="M722 558 c-19 -19 -14 -29 8 -16 20 13 27 28 12 28 -4 0 -13 -5 -20
-12z"/>
<path d="M175 520 c4 -6 11 -8 16 -5 14 9 11 15 -7 15 -8 0 -12 -5 -9 -10z"/>
<path d="M220 490 c0 -5 5 -10 10 -10 6 0 10 5 10 10 0 6 -4 10 -10 10 -5 0
-10 -4 -10 -10z"/>
<path d="M230 450 c0 -19 3 -21 12 -12 9 9 9 15 0 24 -9 9 -12 7 -12 -12z"/>
<path d="M267 443 c-3 -5 3 -22 15 -39 12 -17 17 -21 13 -9 -4 11 -8 25 -9 32
-3 18 -13 26 -19 16z"/>
<path d="M437 400 c-10 -16 -27 -30 -37 -30 -10 0 -20 -6 -23 -12 -3 -10 -9
-10 -25 -1 -21 12 -21 12 -10 -13 10 -22 9 -27 -5 -35 -27 -16 -87 -76 -87
-88 0 -6 -13 -11 -30 -11 -16 0 -30 -4 -30 -10 0 -5 6 -10 13 -10 6 0 -3 -14
-20 -31 -18 -16 -33 -34 -33 -38 0 -4 -10 -7 -22 -7 -14 1 -23 -5 -24 -14 0
-22 -60 -81 -84 -83 -11 -1 -20 -5 -20 -9 0 -4 83 -8 184 -8 168 0 184 2 188
18 4 13 16 18 51 20 25 1 49 -3 53 -9 4 -7 -1 -9 -15 -4 -11 3 -30 3 -41 0
-51 -16 -6 -24 156 -25 163 -1 175 1 172 17 -2 10 -16 24 -32 32 -29 15 -69
52 -165 155 -42 45 -51 60 -40 67 10 6 10 9 2 9 -7 0 -13 6 -13 14 0 8 -16 20
-35 26 -41 14 -45 37 -14 81 11 16 17 29 12 29 -5 0 -17 -13 -26 -30z"/>
<path d="M488 363 c7 -3 16 -2 19 1 4 3 -2 6 -13 5 -11 0 -14 -3 -6 -6z"/>
<path d="M450 339 c0 -5 5 -7 10 -4 6 3 10 8 10 11 0 2 -4 4 -10 4 -5 0 -10
-5 -10 -11z"/>
<path d="M45 90 c3 -5 8 -10 11 -10 2 0 4 5 4 10 0 6 -5 10 -11 10 -5 0 -7 -4
-4 -10z"/>
</g>
</svg>
